<?xml version="1.0" encoding="UTF-8"?>
<!DOCTYPE svg PUBLIC "-//W3C//DTD SVG 1.1//EN" "http://www.w3.org/Graphics/SVG/1.1/DTD/svg11.dtd">
<svg version="1.1" xmlns="http://www.w3.org/2000/svg" xmlns:xlink="http://www.w3.org/1999/xlink" x="0px" y="0px" width="200" height="200" viewBox="0, 0, 200, 200">
  <g id="Layer 1">
    <path d="M0,0 L200,0 L200,200 L0,200 z" fill="#A6A6A6"/>
    <g>
      <path d="M111.703,69.588 C122.257,69.588 131.401,76.89 136.451,87.65 L166.2,87.692 L166.2,67.368 C166.2,59.832 161.384,53.705 155.445,53.705 L44.522,53.705 C38.599,53.705 33.8,59.832 33.8,67.368 L33.834,87.521 L86.955,87.564 C92.039,76.847 101.149,69.588 111.703,69.588" fill="#DDDDDD"/>
      <path d="M61.619,47.257 L51.753,47.257 L50.612,51.783 L62.441,51.783 z" fill="#DDDDDD"/>
      <path d="M150.596,44.845 L137.458,44.845 L135.126,51.826 L152.727,51.826 z" fill="#DDDDDD"/>
      <path d="M115.864,39.657 L83.951,39.657 L77.374,51.911 L121.904,51.911 L115.864,39.657 z M105.495,49.413 L94.169,49.413 L94.169,42.454 L105.495,42.454 L105.495,49.413 z" fill="#DDDDDD"/>
      <path d="M137.978,91.279 C139.623,95.89 140.596,100.971 140.596,106.373 C140.596,126.676 127.66,143.157 111.686,143.157 C95.713,143.157 82.777,126.697 82.777,106.373 C82.777,100.971 83.733,95.89 85.394,91.258 L33.783,91.258 L33.783,146.68 C33.783,154.216 38.565,160.343 44.505,160.343 L155.428,160.343 C161.368,160.343 166.183,154.216 166.183,146.68 L166.217,91.279 L137.978,91.279 z" fill="#DDDDDD"/>
      <path d="M127.458,94.289 C127.005,93.264 126.435,92.304 125.814,91.386 C122.441,86.219 117.391,82.846 111.686,82.846 C105.982,82.846 100.931,86.198 97.559,91.343 C96.938,92.282 96.384,93.243 95.881,94.289 C94.169,97.833 93.163,101.932 93.163,106.373 C93.163,119.353 101.451,129.899 111.686,129.899 C121.871,129.899 130.176,119.374 130.176,106.373 C130.176,101.932 129.17,97.833 127.458,94.289" fill="#DDDDDD"/>
    </g>
  </g>
  <defs/>
</svg>
